<?xml version="1.0" standalone="no"?>
<!DOCTYPE svg PUBLIC "-//W3C//DTD SVG 20010904//EN"
 "http://www.w3.org/TR/2001/REC-SVG-20010904/DTD/svg10.dtd">
<svg version="1.0" xmlns="http://www.w3.org/2000/svg"
 width="260.000000pt" height="260.000000pt" viewBox="0 0 260.000000 260.000000"
 preserveAspectRatio="xMidYMid meet">
<metadata>
Created by potrace 1.14, written by Peter Selinger 2001-2017
</metadata>
<g transform="translate(0.000000,260.000000) scale(0.100000,-0.100000)"
fill="#000000" stroke="none">
<path d="M417 2588 c-3 -7 -2 -35 1 -62 l5 -49 -31 6 c-40 8 -40 1 -2 -43 16
-19 29 -39 30 -44 0 -5 -20 -30 -44 -56 -58 -62 -81 -106 -62 -117 12 -7 9
-18 -19 -63 -19 -30 -35 -58 -35 -62 0 -5 14 -8 30 -8 17 0 30 -5 30 -10 0 -6
-14 -38 -31 -72 -24 -47 -28 -63 -18 -69 11 -6 11 -14 1 -42 -15 -43 -15 -47
4 -47 9 0 27 -25 45 -65 34 -75 36 -95 10 -95 -40 0 -58 -123 -41 -275 11
-106 31 -159 93 -256 55 -86 98 -119 156 -119 47 0 47 0 70 -50 27 -60 76
-111 225 -231 61 -50 111 -98 111 -107 0 -15 -21 -18 -185 -22 -179 -5 -187
-6 -231 -32 -67 -39 -114 -97 -133 -161 -12 -42 -16 -100 -16 -246 l0 -191
906 0 906 0 -4 193 c-3 157 -7 203 -23 251 -24 73 -84 142 -150 172 -47 22
-62 24 -228 24 -156 0 -178 2 -184 16 -4 12 3 24 23 38 15 11 84 66 153 120
116 93 126 104 155 167 l31 68 45 -5 c56 -6 85 12 142 87 91 121 118 211 118
389 0 99 -11 158 -32 171 -9 6 -6 22 11 65 19 45 22 60 13 75 -15 23 -15 49
-2 49 6 0 10 9 10 19 0 11 -4 23 -10 26 -19 12 -10 35 13 35 30 0 40 10 26 26
-14 17 -3 34 22 34 24 0 24 18 0 44 -10 12 -24 44 -31 71 -40 157 -53 190
-100 240 -76 83 -75 81 -51 111 14 18 21 41 21 70 0 40 -2 44 -24 44 -16 0
-27 -7 -31 -20 -8 -26 -25 -26 -25 0 0 20 -7 20 -829 20 -654 0 -830 -3 -834
-12z m787 -256 c35 -24 39 -25 51 -9 11 16 13 15 30 -3 23 -26 35 -25 35 1 0
14 5 19 14 16 8 -3 92 1 186 9 166 15 174 14 252 -5 46 -12 96 -32 115 -47 30
-23 33 -30 27 -57 -3 -18 -13 -36 -22 -41 -13 -8 -11 -13 14 -32 27 -22 28
-25 16 -56 -12 -33 -13 -31 33 -95 7 -9 6 -16 -3 -22 -12 -7 -11 -14 2 -39 20
-39 20 -56 0 -88 -16 -23 -16 -31 4 -122 12 -53 23 -113 24 -132 3 -32 6 -35
36 -38 17 -2 32 -8 32 -14 0 -18 -70 -307 -102 -418 -51 -183 -64 -198 -341
-408 -91 -69 -112 -81 -136 -76 -15 3 -67 1 -114 -5 -47 -5 -140 -7 -206 -4
l-121 6 -128 102 c-186 148 -244 208 -269 280 -55 158 -140 506 -128 526 4 5
15 9 26 9 28 0 31 16 20 95 -10 65 -9 74 14 121 22 44 24 56 14 78 -9 20 -9
32 -1 52 9 18 9 31 1 46 -9 16 -7 26 10 49 12 16 19 34 15 40 -3 6 4 24 16 41
12 16 19 36 16 43 -3 8 -1 17 4 20 6 3 8 24 7 47 -3 30 1 45 17 59 11 11 25
19 32 19 6 0 43 16 82 36 85 42 161 55 292 48 82 -5 100 -9 134 -32z m-771
-740 c9 -8 17 -24 17 -36 0 -18 -5 -15 -36 17 -28 29 -41 36 -60 31 -25 -6
-29 1 -18 30 6 14 11 14 43 -6 20 -12 44 -28 54 -36z m1791 36 c9 -35 7 -43
-6 -30 -22 22 -46 12 -88 -35 -33 -38 -40 -43 -35 -23 10 33 22 48 69 82 47
34 52 34 60 6z m-26 -110 c-4 -24 -1 -32 14 -36 21 -5 22 -21 8 -111 -13 -74
-42 -137 -99 -209 -51 -64 -83 -86 -112 -77 -18 6 -20 12 -15 38 9 43 23 55
79 66 56 10 79 27 76 55 -4 51 2 76 16 76 11 0 15 11 15 40 0 40 -16 66 -55
88 -11 6 -16 16 -12 26 8 22 24 20 44 -4 22 -25 33 -25 33 -1 0 11 -12 28 -26
38 l-25 19 22 28 c20 25 23 26 32 11 5 -9 7 -31 5 -47z m-1806 35 c24 -22 22
-34 -7 -56 l-25 -18 0 46 c0 49 4 53 32 28z m-29 -90 c18 -17 19 -17 32 0 15
21 45 23 45 2 0 -8 -9 -19 -21 -25 -41 -23 -65 -142 -25 -127 8 3 13 0 13 -6
-2 -88 21 -127 78 -127 43 0 64 -19 67 -60 3 -31 0 -35 -23 -38 -21 -2 -36 7
-72 49 -80 91 -127 205 -127 306 0 48 4 51 33 26z m1740 -123 c13 -30 13 -38
1 -61 -17 -34 -65 -72 -75 -62 -5 5 4 57 19 117 24 96 28 104 33 75 4 -19 13
-50 22 -69z m-1675 34 c-7 -15 -14 -21 -16 -15 -5 16 5 41 17 41 7 0 6 -10 -1
-26z m102 -161 c0 -2 -6 -3 -14 -3 -17 0 -62 51 -71 80 -4 12 2 39 16 66 l22
46 23 -93 c13 -52 24 -95 24 -96z m1614 148 c-6 -6 -24 19 -24 34 1 6 7 1 15
-9 8 -11 12 -22 9 -25z m-586 -781 c-6 -62 -39 -101 -107 -127 -36 -14 -76
-18 -186 -18 -123 0 -146 3 -187 22 -56 26 -88 71 -88 126 0 20 3 37 8 37 4
-1 20 -21 36 -46 44 -70 62 -77 197 -82 176 -6 221 1 269 47 27 26 40 47 40
64 0 15 5 27 11 27 8 0 10 -17 7 -50z"/>
<path d="M725 1845 c-40 -22 -76 -56 -69 -66 3 -5 45 -9 94 -9 55 0 135 -9
207 -24 140 -29 184 -35 201 -29 15 6 16 32 1 70 -7 20 -12 24 -18 14 -6 -9
-11 -10 -15 -2 -9 14 -46 15 -46 1 0 -7 -6 -7 -17 -1 -31 16 -175 49 -243 55
-49 5 -72 3 -95 -9z"/>
<path d="M1610 1824 c-63 -13 -127 -25 -142 -26 -16 0 -30 -9 -37 -22 -8 -17
-9 -15 -4 14 l6 34 -29 -23 c-33 -26 -53 -57 -54 -84 0 -16 7 -18 68 -13 37 2
123 19 192 38 97 25 144 33 213 32 48 0 87 3 87 6 0 3 -15 20 -33 38 -30 29
-38 32 -92 31 -33 0 -112 -12 -175 -25z"/>
<path d="M786 1695 c-21 -7 -46 -21 -55 -31 -15 -15 -14 -16 12 -10 34 8 34 1
1 -28 l-26 -22 23 -15 c47 -31 118 -41 231 -33 59 3 108 9 108 11 0 2 -12 19
-26 38 -14 18 -24 42 -22 52 7 41 -163 68 -246 38z m175 -70 c-1 -15 -24 -12
-29 3 -3 9 2 13 12 10 10 -1 17 -7 17 -13z m-113 -28 c3 -13 -3 -17 -25 -17
-15 0 -35 5 -43 10 -12 7 -10 11 10 19 34 13 54 9 58 -12z m182 6 l24 -17 -29
-8 c-34 -9 -45 -3 -45 23 0 23 18 24 50 2z"/>
<path d="M1536 1686 c-37 -12 -62 -36 -36 -36 6 0 -2 -14 -19 -31 -48 -48 -42
-55 52 -62 128 -10 180 -8 230 9 52 18 54 20 31 52 -12 17 -12 22 -2 20 7 -2
13 4 13 12 0 40 -179 64 -269 36z m5 -108 c-4 -4 -19 -4 -35 0 l-29 8 29 23
29 23 6 -24 c3 -12 3 -26 0 -30z m119 42 c0 -5 -7 -10 -15 -10 -8 0 -15 5 -15
10 0 6 7 10 15 10 8 0 15 -4 15 -10z m59 -11 c39 -14 35 -33 -7 -37 -28 -3
-32 0 -32 22 0 30 -2 29 39 15z"/>
<path d="M1147 1664 c-3 -3 -3 -59 0 -123 3 -64 3 -147 -1 -184 l-8 -67 -33 0
c-39 0 -55 -20 -55 -69 0 -33 23 -54 72 -66 14 -4 34 -15 44 -26 23 -26 89
-25 129 1 17 11 42 20 57 20 67 0 95 39 75 103 -9 28 -44 44 -72 33 -25 -9
-18 -36 10 -36 25 0 51 -32 40 -49 -3 -5 -24 -12 -48 -16 -23 -4 -57 -15 -75
-26 -39 -22 -71 -24 -97 -5 -23 17 -24 48 -6 212 17 153 -2 328 -32 298z m-17
-445 c0 -24 -4 -30 -17 -27 -11 2 -19 14 -21 31 -3 22 1 27 17 27 17 0 21 -6
21 -31z"/>
<path d="M1519 1056 c-2 -2 -66 -9 -141 -16 -104 -9 -170 -9 -274 0 -75 6
-138 10 -140 8 -2 -3 8 -20 22 -39 14 -19 31 -48 38 -64 12 -29 18 -31 115
-49 138 -25 261 -20 317 14 51 32 144 119 144 136 0 9 -13 14 -38 14 -21 0
-41 -2 -43 -4z m1 -39 c0 -8 -10 -19 -22 -26 -13 -7 -32 -27 -43 -44 -26 -40
-70 -50 -195 -44 -109 6 -200 24 -204 40 -2 7 -8 27 -14 46 l-11 34 127 -6
c70 -4 156 -3 192 2 108 14 170 13 170 -2z"/>
<path d="M1170 808 c0 -16 80 -98 95 -98 15 1 108 90 102 97 -4 3 -49 8 -102
11 -78 4 -95 2 -95 -10z"/>
</g>
</svg>
